<svg width="40" height="40" viewBox="0 0 40 40" fill="none" xmlns="http://www.w3.org/2000/svg">
  <defs>
    <linearGradient id="instagram-gradient" x1="4" y1="4" x2="36" y2="36" gradientUnits="userSpaceOnUse">
      <stop stop-color="#F58529" />
      <stop offset="0.45" stop-color="#DD2A7B" />
      <stop offset="0.75" stop-color="#8134AF" />
      <stop offset="1" stop-color="#515BD4" />
    </linearGradient>
  </defs>
  <rect x="4" y="4" width="32" height="32" rx="9" fill="url(#instagram-gradient)" />
  <path
    d="M20 14.5C16.9624 14.5 14.5 16.9624 14.5 20C14.5 23.0376 16.9624 25.5 20 25.5C23.0376 25.5 25.5 23.0376 25.5 20C25.5 16.9624 23.0376 14.5 20 14.5ZM20 23.4C18.1208 23.4 16.6 21.8792 16.6 20C16.6 18.1208 18.1208 16.6 20 16.6C21.8792 16.6 23.4 18.1208 23.4 20C23.4 21.8792 21.8792 23.4 20 23.4Z"
    fill="white"
  />
  <circle cx="26.2" cy="13.8" r="1.6" fill="white" />
  <path
    d="M13.2 9.8C11.4327 9.8 9.8 11.4327 9.8 13.2V26.8C9.8 28.5673 11.4327 30.2 13.2 30.2H26.8C28.5673 30.2 30.2 28.5673 30.2 26.8V13.2C30.2 11.4327 28.5673 9.8 26.8 9.8H13.2ZM13.2 11.9H26.8C27.4049 11.9 27.9 12.3951 27.9 13V27C27.9 27.6049 27.4049 28.1 26.8 28.1H13.2C12.5951 28.1 12.1 27.6049 12.1 27V13C12.1 12.3951 12.5951 11.9 13.2 11.9Z"
    fill="white"
  />
</svg>
