<svg width="40" height="40" viewBox="0 0 40 40" fill="none" xmlns="http://www.w3.org/2000/svg">
  <rect x="4" y="4" width="32" height="32" rx="9" fill="#0A66C2" />
  <path d="M15.4 17.2H19.2V30H15.4V17.2Z" fill="white" />
  <path d="M17.3 10C16.04 10 15 11.04 15 12.3C15 13.56 16.04 14.6 17.3 14.6C18.56 14.6 19.6 13.56 19.6 12.3C19.6 11.04 18.56 10 17.3 10Z" fill="white" />
  <path
    d="M21.6 17.2H25.3V18.96H25.36C25.88 17.92 27.16 16.82 29.04 16.82C32.04 16.82 32.6 18.8 32.6 21.4V30H28.8V22.16C28.8 20.8 28.76 19.04 26.92 19.04C25.04 19.04 24.76 20.5 24.76 22.06V30H21.6V17.2Z"
    fill="white"
  />
</svg>
