<svg width="40" height="40" viewBox="0 0 40 40" fill="none" xmlns="http://www.w3.org/2000/svg">
  <rect x="4" y="4" width="32" height="32" rx="9" fill="#25D366" />
  <path
    d="M20 9C14.49 9 10 13.49 10 19C10 21.04 10.62 22.96 11.72 24.57L10 31L16.66 29.34C18.2 30.22 19.98 30.7 21.86 30.7C27.36 30.7 31.86 26.21 31.86 20.7C31.86 15.19 27.36 10.7 21.86 10.7C21.86 10.7 21.86 10.7 21.86 10.7H20ZM20.14 12.82C24.62 12.82 28.18 16.38 28.18 20.86C28.18 25.34 24.62 28.9 20.14 28.9C18.5 28.9 16.98 28.44 15.68 27.62L15.02 27.2L12.76 27.76L13.32 25.52L12.92 24.88C12.14 23.62 11.78 22.26 11.78 20.86C11.78 16.38 15.66 12.82 20.14 12.82ZM16.44 16.84L15.98 16.84C15.72 16.84 15.26 16.94 14.86 17.44C14.46 17.94 13.58 18.86 13.58 20.56C13.58 22.26 14.86 23.9 15.04 24.14C15.22 24.38 17.5 27.9 21 29.2C24.5 30.5 24.98 29.66 25.78 29.54C26.58 29.42 27.5 28.86 27.82 28.3C28.14 27.74 28.14 27.22 28.04 27.04C27.94 26.86 27.5 26.68 26.82 26.32C26.14 25.96 24.46 25.12 24.06 25C23.66 24.88 23.38 24.82 23.12 25.22C22.86 25.62 22.06 26.58 21.82 26.86C21.58 27.14 21.34 27.18 21.04 27.04C20.74 26.9 19.74 26.58 18.7 25.7C17.66 24.82 16.88 23.68 16.64 23.28C16.4 22.88 16.58 22.66 16.72 22.52C16.86 22.38 17.1 22.06 17.24 21.86C17.38 21.66 17.46 21.48 17.54 21.32C17.62 21.16 17.58 20.98 17.5 20.84C17.42 20.7 16.92 19.48 16.66 18.92C16.4 18.36 16.14 18.3 15.98 18.18C15.82 18.06 15.62 18.02 15.46 18.02C15.3 18.02 15.06 18.04 14.86 18.04"
    fill="white"
  />
</svg>
