<svg width="240" height="160" viewBox="0 0 240 160" fill="none" xmlns="http://www.w3.org/2000/svg">
  <defs>
    <linearGradient id="horizonte-bg" x1="16" y1="20" x2="224" y2="140" gradientUnits="userSpaceOnUse">
      <stop stop-color="#0B1D3A" stop-opacity="0.6" />
      <stop offset="1" stop-color="#38BDF8" stop-opacity="0.4" />
    </linearGradient>
    <linearGradient id="horizonte-sole" x1="74" y1="32" x2="190" y2="130" gradientUnits="userSpaceOnUse">
      <stop stop-color="#FFFFFF" />
      <stop offset="1" stop-color="#D6F4FF" />
    </linearGradient>
  </defs>
  <rect x="12" y="16" width="216" height="128" rx="32" fill="url(#horizonte-bg)" />
  <path
    d="M66 118C54 94 62 60 92 40C122 22 166 24 194 46C216 64 218 98 198 120C180 142 144 148 110 138C86 132 72 126 66 118Z"
    fill="url(#horizonte-sole)"
  />
  <path
    d="M92 88C110 74 144 74 166 90"
    stroke="#2DD4BF"
    stroke-width="4"
    stroke-linecap="round"
    stroke-dasharray="12 10"
    opacity="0.7"
  />
  <path d="M100 106C118 112 140 112 156 104" stroke="#38BDF8" stroke-width="3" stroke-linecap="round" opacity="0.6" />
</svg>
