<svg width="240" height="160" viewBox="0 0 240 160" fill="none" xmlns="http://www.w3.org/2000/svg">
  <defs>
    <linearGradient id="marina-bg" x1="12" y1="22" x2="228" y2="136" gradientUnits="userSpaceOnUse">
      <stop stop-color="#38BDF8" stop-opacity="0.28" />
      <stop offset="1" stop-color="#2DD4BF" stop-opacity="0.35" />
    </linearGradient>
    <linearGradient id="marina-sole" x1="70" y1="32" x2="188" y2="124" gradientUnits="userSpaceOnUse">
      <stop stop-color="#FFFFFF" />
      <stop offset="1" stop-color="#CFFAFE" />
    </linearGradient>
  </defs>
  <rect x="10" y="16" width="220" height="128" rx="34" fill="url(#marina-bg)" />
  <path
    d="M60 118C48 94 58 60 86 42C118 22 162 28 190 50C212 68 216 100 198 120C180 140 146 146 112 138C86 132 70 126 60 118Z"
    fill="url(#marina-sole)"
  />
  <path
    d="M88 88C104 74 138 76 160 92"
    stroke="#0F4C75"
    stroke-width="4"
    stroke-linecap="round"
    opacity="0.7"
  />
  <path d="M98 106C116 110 140 110 156 104" stroke="#2DD4BF" stroke-width="3" stroke-linecap="round" opacity="0.6" />
</svg>
