<svg width="240" height="160" viewBox="0 0 240 160" fill="none" xmlns="http://www.w3.org/2000/svg">
  <defs>
    <linearGradient id="andes-bg" x1="16" y1="20" x2="224" y2="140" gradientUnits="userSpaceOnUse">
      <stop stop-color="#0B1D3A" stop-opacity="0.7" />
      <stop offset="1" stop-color="#2DD4BF" stop-opacity="0.35" />
    </linearGradient>
    <linearGradient id="andes-sole" x1="74" y1="30" x2="190" y2="130" gradientUnits="userSpaceOnUse">
      <stop stop-color="#FFFFFF" />
      <stop offset="1" stop-color="#CDEFFD" />
    </linearGradient>
  </defs>
  <rect x="12" y="16" width="216" height="128" rx="32" fill="url(#andes-bg)" />
  <path
    d="M66 118C54 94 62 60 92 40C124 20 166 26 194 48C216 66 220 100 202 122C182 144 148 148 114 138C88 130 72 126 66 118Z"
    fill="url(#andes-sole)"
  />
  <path
    d="M94 84C112 70 146 74 168 92"
    stroke="#38BDF8"
    stroke-width="5"
    stroke-linecap="round"
    opacity="0.7"
  />
  <path d="M104 102C122 108 144 108 160 100" stroke="#2DD4BF" stroke-width="4" stroke-linecap="round" opacity="0.6" />
</svg>
