<svg width="240" height="160" viewBox="0 0 240 160" fill="none" xmlns="http://www.w3.org/2000/svg">
  <defs>
    <linearGradient id="urbana-bg" x1="18" y1="18" x2="222" y2="142" gradientUnits="userSpaceOnUse">
      <stop stop-color="#2DD4BF" stop-opacity="0.25" />
      <stop offset="1" stop-color="#0F4C75" stop-opacity="0.4" />
    </linearGradient>
    <linearGradient id="urbana-sole" x1="68" y1="26" x2="188" y2="134" gradientUnits="userSpaceOnUse">
      <stop stop-color="#FFFFFF" />
      <stop offset="1" stop-color="#DAF5FF" />
    </linearGradient>
  </defs>
  <rect x="8" y="12" width="224" height="136" rx="34" fill="url(#urbana-bg)" />
  <path
    d="M58 116C46 92 54 60 80 40C108 20 158 24 188 50C210 70 214 100 196 120C178 140 142 146 108 138C82 132 68 128 58 116Z"
    fill="url(#urbana-sole)"
  />
  <path
    d="M86 90C100 74 130 72 156 84"
    stroke="#38BDF8"
    stroke-width="4"
    stroke-linecap="round"
    stroke-dasharray="10 8"
    opacity="0.7"
  />
  <path d="M102 108C114 112 132 112 146 106" stroke="#2DD4BF" stroke-width="3" stroke-linecap="round" opacity="0.7" />
</svg>
