<svg width="240" height="160" viewBox="0 0 240 160" fill="none" xmlns="http://www.w3.org/2000/svg">
  <defs>
    <linearGradient id="sierra-bg" x1="16" y1="20" x2="224" y2="136" gradientUnits="userSpaceOnUse">
      <stop stop-color="#0B1D3A" stop-opacity="0.6" />
      <stop offset="1" stop-color="#38BDF8" stop-opacity="0.35" />
    </linearGradient>
    <linearGradient id="sierra-sole" x1="72" y1="32" x2="188" y2="128" gradientUnits="userSpaceOnUse">
      <stop stop-color="#F5FAFF" />
      <stop offset="1" stop-color="#D1F4FF" />
    </linearGradient>
  </defs>
  <rect x="12" y="16" width="216" height="128" rx="32" fill="url(#sierra-bg)" />
  <path
    d="M64 118C50 96 60 58 92 40C118 26 160 30 184 50C206 68 212 96 194 118C178 138 144 144 110 138C88 134 74 128 64 118Z"
    fill="url(#sierra-sole)"
  />
  <path
    d="M88 94C96 84 118 80 140 86C160 92 172 104 170 114"
    stroke="#0F4C75"
    stroke-width="5"
    stroke-linecap="round"
    stroke-dasharray="12 12"
    opacity="0.7"
  />
</svg>
