<svg width="240" height="160" viewBox="0 0 240 160" fill="none" xmlns="http://www.w3.org/2000/svg">
  <defs>
    <linearGradient id="boreal-bg" x1="14" y1="18" x2="226" y2="140" gradientUnits="userSpaceOnUse">
      <stop stop-color="#38BDF8" stop-opacity="0.3" />
      <stop offset="1" stop-color="#A855F7" stop-opacity="0.28" />
    </linearGradient>
    <linearGradient id="boreal-sole" x1="70" y1="32" x2="188" y2="126" gradientUnits="userSpaceOnUse">
      <stop stop-color="#FFFFFF" />
      <stop offset="1" stop-color="#EBD4FF" />
    </linearGradient>
  </defs>
  <rect x="8" y="12" width="224" height="136" rx="34" fill="url(#boreal-bg)" />
  <path
    d="M60 118C48 92 56 60 84 40C114 20 156 26 184 50C206 70 214 98 198 120C180 142 146 148 112 138C86 130 70 126 60 118Z"
    fill="url(#boreal-sole)"
  />
  <path
    d="M86 92C102 80 132 78 154 90"
    stroke="#38BDF8"
    stroke-width="4"
    stroke-linecap="round"
    stroke-dasharray="10 10"
    opacity="0.7"
  />
  <circle cx="110" cy="102" r="8" fill="#A855F7" fill-opacity="0.2" />
  <circle cx="138" cy="102" r="8" fill="#38BDF8" fill-opacity="0.2" />
</svg>
