<svg width="240" height="160" viewBox="0 0 240 160" fill="none" xmlns="http://www.w3.org/2000/svg">
  <defs>
    <linearGradient id="quantum-bg" x1="16" y1="18" x2="224" y2="138" gradientUnits="userSpaceOnUse">
      <stop stop-color="#0B1D3A" stop-opacity="0.7" />
      <stop offset="1" stop-color="#38BDF8" stop-opacity="0.4" />
    </linearGradient>
    <linearGradient id="quantum-sole" x1="74" y1="32" x2="188" y2="126" gradientUnits="userSpaceOnUse">
      <stop stop-color="#FFFFFF" />
      <stop offset="1" stop-color="#CCFBF1" />
    </linearGradient>
  </defs>
  <rect x="12" y="14" width="216" height="132" rx="34" fill="url(#quantum-bg)" />
  <path
    d="M66 118C54 94 64 58 96 38C126 20 170 24 196 46C218 66 220 100 200 120C180 142 146 146 112 138C86 132 72 126 66 118Z"
    fill="url(#quantum-sole)"
  />
  <path
    d="M94 86C110 72 144 72 168 90"
    stroke="#38BDF8"
    stroke-width="5"
    stroke-linecap="round"
    opacity="0.7"
  />
  <path d="M102 106C120 112 142 112 158 104" stroke="#2DD4BF" stroke-width="4" stroke-linecap="round" opacity="0.7" />
  <circle cx="124" cy="98" r="10" stroke="#38BDF8" stroke-width="3" opacity="0.6" />
</svg>
