<svg width="240" height="160" viewBox="0 0 240 160" fill="none" xmlns="http://www.w3.org/2000/svg">
  <defs>
    <linearGradient id="eco-bg" x1="12" y1="20" x2="228" y2="140" gradientUnits="userSpaceOnUse">
      <stop stop-color="#2DD4BF" stop-opacity="0.28" />
      <stop offset="1" stop-color="#0B1D3A" stop-opacity="0.4" />
    </linearGradient>
    <linearGradient id="eco-sole" x1="70" y1="30" x2="186" y2="130" gradientUnits="userSpaceOnUse">
      <stop stop-color="#F4FFF9" />
      <stop offset="1" stop-color="#CFFAE6" />
    </linearGradient>
  </defs>
  <rect x="10" y="16" width="220" height="128" rx="34" fill="url(#eco-bg)" />
  <path
    d="M62 118C50 94 58 60 86 40C112 22 152 24 180 46C204 64 214 96 198 118C182 138 148 146 114 138C90 132 74 126 62 118Z"
    fill="url(#eco-sole)"
  />
  <path
    d="M90 82C106 68 136 70 158 88"
    stroke="#0F4C75"
    stroke-width="4"
    stroke-linecap="round"
    stroke-dasharray="14 8"
    opacity="0.7"
  />
  <path d="M98 100C112 106 134 106 150 100" stroke="#2DD4BF" stroke-width="3" stroke-linecap="round" opacity="0.7" />
</svg>
