<svg width="240" height="160" viewBox="0 0 240 160" fill="none" xmlns="http://www.w3.org/2000/svg">
  <defs>
    <linearGradient id="atlantica-bg" x1="14" y1="24" x2="226" y2="132" gradientUnits="userSpaceOnUse">
      <stop stop-color="#0F4C75" stop-opacity="0.55" />
      <stop offset="1" stop-color="#38BDF8" stop-opacity="0.35" />
    </linearGradient>
    <linearGradient id="atlantica-sole" x1="72" y1="34" x2="190" y2="128" gradientUnits="userSpaceOnUse">
      <stop stop-color="#FFFFFF" />
      <stop offset="1" stop-color="#BEE3F8" />
    </linearGradient>
  </defs>
  <rect x="10" y="18" width="220" height="124" rx="32" fill="url(#atlantica-bg)" />
  <path
    d="M62 118C52 94 60 60 90 42C120 24 164 28 190 48C212 66 216 96 198 116C178 138 140 144 108 136C84 130 70 126 62 118Z"
    fill="url(#atlantica-sole)"
  />
  <path
    d="M88 98C100 86 130 84 156 94"
    stroke="#2DD4BF"
    stroke-width="4"
    stroke-linecap="round"
    opacity="0.7"
  />
  <path d="M98 78C114 74 138 74 156 82" stroke="#38BDF8" stroke-width="3" stroke-linecap="round" opacity="0.6" />
</svg>
