<svg width="240" height="160" viewBox="0 0 240 160" fill="none" xmlns="http://www.w3.org/2000/svg">
  <defs>
    <linearGradient id="impacto-bg" x1="30" y1="12" x2="210" y2="150" gradientUnits="userSpaceOnUse">
      <stop stop-color="#38BDF8" stop-opacity="0.18" />
      <stop offset="1" stop-color="#0F4C75" stop-opacity="0.6" />
    </linearGradient>
    <linearGradient id="impacto-sole" x1="70" y1="28" x2="190" y2="132" gradientUnits="userSpaceOnUse">
      <stop stop-color="#FDFEFF" />
      <stop offset="1" stop-color="#BEE3F8" />
    </linearGradient>
  </defs>
  <rect x="10" y="12" width="220" height="136" rx="34" fill="url(#impacto-bg)" />
  <path
    d="M60 122C48 98 56 64 82 44C106 26 146 26 176 42C200 54 214 82 204 108C196 128 170 140 138 142C110 142 78 138 60 122Z"
    fill="url(#impacto-sole)"
  />
  <path
    d="M88 80C104 66 140 70 162 86"
    stroke="#2DD4BF"
    stroke-width="5"
    stroke-linecap="round"
    opacity="0.6"
  />
  <circle cx="114" cy="94" r="10" fill="#2DD4BF" fill-opacity="0.2" />
  <circle cx="146" cy="94" r="10" fill="#38BDF8" fill-opacity="0.2" />
</svg>
