<svg width="240" height="160" viewBox="0 0 240 160" fill="none" xmlns="http://www.w3.org/2000/svg">
  <defs>
    <linearGradient id="zenith-bg" x1="16" y1="18" x2="224" y2="142" gradientUnits="userSpaceOnUse">
      <stop stop-color="#1E3A8A" stop-opacity="0.6" />
      <stop offset="1" stop-color="#38BDF8" stop-opacity="0.4" />
    </linearGradient>
    <linearGradient id="zenith-sole" x1="74" y1="30" x2="188" y2="128" gradientUnits="userSpaceOnUse">
      <stop stop-color="#FFFFFF" />
      <stop offset="1" stop-color="#DDEAFE" />
    </linearGradient>
  </defs>
  <rect x="12" y="14" width="216" height="132" rx="34" fill="url(#zenith-bg)" />
  <path
    d="M66 118C54 94 62 60 94 40C126 20 168 26 196 48C218 66 222 100 204 122C184 144 148 150 114 140C88 132 72 126 66 118Z"
    fill="url(#zenith-sole)"
  />
  <path
    d="M94 86C112 72 146 74 170 92"
    stroke="#38BDF8"
    stroke-width="5"
    stroke-linecap="round"
    opacity="0.7"
  />
  <path d="M104 104C122 110 146 110 162 102" stroke="#60A5FA" stroke-width="4" stroke-linecap="round" opacity="0.7" />
  <circle cx="130" cy="96" r="9" fill="#60A5FA" fill-opacity="0.25" />
</svg>
