<svg width="240" height="160" viewBox="0 0 240 160" fill="none" xmlns="http://www.w3.org/2000/svg">
  <defs>
    <linearGradient id="prisma-bg" x1="12" y1="18" x2="228" y2="140" gradientUnits="userSpaceOnUse">
      <stop stop-color="#2DD4BF" stop-opacity="0.3" />
      <stop offset="1" stop-color="#38BDF8" stop-opacity="0.35" />
    </linearGradient>
    <linearGradient id="prisma-sole" x1="70" y1="32" x2="188" y2="128" gradientUnits="userSpaceOnUse">
      <stop stop-color="#FFFFFF" />
      <stop offset="1" stop-color="#E6FFFA" />
    </linearGradient>
  </defs>
  <rect x="10" y="14" width="220" height="132" rx="34" fill="url(#prisma-bg)" />
  <path
    d="M60 118C48 94 58 60 86 40C120 20 160 26 188 46C210 64 214 100 198 120C178 142 142 148 108 138C82 130 68 126 60 118Z"
    fill="url(#prisma-sole)"
  />
  <path
    d="M88 86C106 72 140 74 162 92"
    stroke="#2DD4BF"
    stroke-width="4"
    stroke-linecap="round"
    opacity="0.7"
  />
  <path d="M96 104C114 110 140 110 156 104" stroke="#38BDF8" stroke-width="3" stroke-linecap="round" opacity="0.6" />
  <circle cx="126" cy="96" r="9" fill="#2DD4BF" fill-opacity="0.2" />
</svg>
